<?xml version="1.0" standalone="no"?>
<!DOCTYPE svg PUBLIC "-//W3C//DTD SVG 20010904//EN"
 "http://www.w3.org/TR/2001/REC-SVG-20010904/DTD/svg10.dtd">
<svg version="1.0" xmlns="http://www.w3.org/2000/svg"
 width="2732.000000pt" height="768.000000pt" viewBox="0 0 2732.000000 768.000000"
 preserveAspectRatio="xMidYMid meet">

<g transform="translate(0.000000,768.000000) scale(0.100000,-0.100000)"
fill="#000000" stroke="none">
<path d="M4278 5971 c-40 -28 -116 -90 -168 -139 -52 -49 -128 -110 -168 -136
-41 -26 -100 -74 -133 -107 -74 -75 -107 -89 -210 -89 -65 0 -94 5 -152 28
-40 16 -112 39 -160 52 -85 22 -92 23 -205 10 -139 -16 -205 -38 -263 -88 -53
-46 -221 -162 -269 -187 -19 -10 -78 -61 -130 -114 -145 -148 -443 -384 -545
-432 -74 -35 -222 -75 -329 -89 -45 -6 -128 -24 -186 -40 -58 -17 -120 -30
-137 -30 -41 0 -191 -26 -283 -49 -117 -30 -236 -85 -371 -171 -198 -128 -220
-139 -299 -155 -99 -21 -104 -24 -193 -91 l-77 -59 0 -2042 0 -2043 13660 0
13660 0 0 2210 c0 2183 0 2211 -19 2200 -27 -14 -41 -13 -41 4 0 19 -28 28
-50 16 -17 -9 -19 -7 -15 25 4 26 1 37 -11 42 -13 5 -12 9 9 27 13 12 27 32
32 44 7 25 2 25 -51 5 -18 -7 -29 18 -13 28 11 8 10 12 -5 24 -16 12 -17 18
-8 27 7 7 12 19 12 27 0 8 7 22 16 32 20 22 11 80 -9 60 -6 -6 -20 -11 -30
-11 -19 0 -19 1 1 18 21 18 47 82 33 82 -4 0 -21 -16 -38 -35 -17 -19 -33 -35
-35 -35 -11 0 -5 60 7 70 20 17 19 31 -2 23 -13 -5 -15 -2 -11 15 4 15 2 19
-8 15 -9 -3 -14 2 -14 15 0 12 -5 24 -10 27 -5 3 -10 2 -10 -3 0 -6 -8 -13
-17 -16 -17 -7 -62 37 -63 62 0 22 -18 13 -24 -13 -4 -14 -13 -25 -21 -25 -19
0 -19 -9 2 -32 15 -17 15 -19 -7 -38 -13 -11 -29 -20 -37 -20 -7 0 -13 -4 -13
-9 0 -14 51 -52 61 -45 20 12 7 -36 -15 -57 -18 -17 -22 -28 -15 -41 23 -42
-33 -90 -76 -65 -28 15 -39 -6 -21 -42 9 -17 21 -31 26 -31 6 0 10 -4 10 -10
0 -5 -15 -10 -32 -11 -46 -1 -81 -12 -86 -27 -2 -7 5 -12 16 -12 11 0 23 -7
26 -16 3 -8 10 -12 16 -9 6 3 10 -3 10 -15 0 -16 -5 -20 -15 -16 -24 9 -43 -3
-38 -25 4 -13 0 -19 -11 -19 -9 0 -16 -8 -16 -17 -1 -16 -2 -16 -13 -2 -7 9
-18 14 -24 12 -20 -7 -15 25 5 36 14 8 15 12 5 22 -11 11 -13 10 -13 -3 0 -11
-6 -15 -18 -11 -10 2 -25 -3 -33 -13 -13 -15 -12 -16 11 -9 22 7 23 6 11 -9
-7 -9 -10 -16 -6 -16 4 0 2 -7 -5 -15 -9 -11 -17 -12 -30 -5 -13 7 -21 7 -25
0 -3 -5 1 -10 9 -10 32 0 15 -17 -19 -18 -20 -1 -43 -10 -54 -21 -12 -12 -27
-18 -36 -15 -21 9 -19 21 6 27 15 4 20 11 16 21 -4 9 -2 16 3 16 16 0 -9 51
-35 72 -14 11 -25 27 -24 36 0 11 2 12 6 5 9 -23 20 -14 15 12 -4 25 -22 45
-22 26 0 -6 -7 -11 -15 -11 -19 0 -21 -56 -2 -63 6 -3 -2 -6 -20 -6 -27 -1
-30 2 -26 20 8 29 -16 42 -36 21 -13 -14 -81 -26 -81 -14 0 12 32 32 42 26 9
-6 9 -3 -1 9 -15 18 -51 23 -51 7 0 -5 -7 -10 -16 -10 -10 0 -14 6 -10 15 6
17 -11 20 -34 5 -12 -7 -12 -12 -2 -22 8 -8 12 -8 12 -1 0 8 7 8 24 0 23 -11
23 -12 5 -25 -11 -7 -28 -11 -38 -7 -10 3 -30 1 -44 -4 -33 -13 -57 10 -37 34
11 13 15 13 22 3 6 -10 10 -7 14 10 4 12 10 22 15 22 5 0 9 6 9 14 0 8 8 22
17 32 16 15 15 18 -10 36 -15 11 -25 24 -21 29 3 5 -2 9 -10 9 -9 0 -16 8 -16
18 0 10 -6 24 -12 31 -7 6 -13 24 -13 38 0 34 -17 40 -30 11 -11 -26 -42 -35
-58 -19 -8 8 -7 17 0 33 20 42 26 63 24 83 -3 20 -2 20 12 1 8 -11 19 -16 26
-12 7 4 14 -2 19 -15 5 -14 11 -18 16 -11 3 6 2 13 -3 17 -14 8 8 55 26 55 7
0 13 5 13 11 0 8 5 7 15 -1 18 -15 15 -20 -12 -24 -22 -3 -29 -46 -13 -76 14
-26 34 -26 27 0 -3 11 0 18 7 17 6 -1 11 8 10 20 0 12 4 21 10 20 20 -4 11 19
-21 56 -32 36 -63 42 -63 11 0 -8 -6 -11 -15 -8 -18 7 -11 44 11 57 23 13 16
37 -10 37 -13 0 -26 6 -29 13 -4 10 -7 10 -18 0 -7 -7 -22 -13 -33 -13 -19 0
-19 1 -1 13 12 10 14 16 7 21 -9 5 -9 11 1 20 6 8 16 11 21 8 5 -3 6 0 2 6 -4
6 0 22 9 36 19 29 6 42 -25 26 -33 -18 -47 -7 -22 18 21 21 30 52 15 52 -5 0
-20 -7 -35 -14 -27 -14 -28 -14 -28 8 0 13 9 35 20 49 22 28 13 42 -20 32 -15
-5 -20 -2 -20 12 0 11 -5 24 -12 31 -9 9 -8 12 6 12 13 0 16 5 11 18 -4 9 -8
23 -8 30 0 6 -2 10 -5 7 -2 -2 -12 3 -20 12 -15 15 -17 14 -22 -5 -3 -11 -15
-32 -27 -46 l-22 -25 22 -17 22 -16 -27 5 c-21 3 -28 0 -28 -12 0 -9 -9 -25
-21 -34 -18 -16 -19 -21 -7 -35 7 -9 21 -23 31 -30 9 -7 17 -20 17 -28 0 -8 6
-14 13 -14 6 0 3 -6 -8 -12 -11 -6 -23 -16 -27 -21 -4 -7 -17 -6 -38 3 -62 26
-63 -30 0 -67 17 -9 30 -21 30 -26 0 -5 9 -5 20 -2 22 7 27 -9 10 -35 -8 -12
-11 -12 -28 3 -10 9 -22 17 -25 17 -11 0 -8 -38 3 -45 19 -12 10 -24 -22 -33
-40 -11 -48 -7 -48 22 0 13 -7 29 -15 36 -9 7 -14 15 -11 17 2 2 -2 25 -8 51
-14 54 -46 73 -46 27 0 -17 -4 -24 -11 -19 -9 5 -10 -1 -5 -19 5 -21 3 -25 -9
-21 -8 4 -15 1 -15 -5 0 -7 8 -15 18 -18 14 -6 13 -8 -8 -13 -18 -5 -29 -1
-39 13 -12 17 -14 17 -32 1 -13 -12 -19 -13 -19 -4 0 10 -3 10 -14 1 -11 -10
-17 -8 -25 6 -6 10 -11 12 -11 6 0 -7 -6 -12 -12 -10 -7 1 -13 -7 -14 -18 -1
-30 9 -41 17 -19 6 18 8 17 17 -6 5 -14 12 -23 16 -21 4 1 20 -3 37 -9 20 -9
28 -18 24 -27 -8 -23 5 -36 21 -22 8 6 17 9 21 5 3 -3 2 -6 -4 -6 -11 0 -10
-86 1 -97 3 -4 6 -1 6 5 0 7 5 12 11 12 6 0 8 -9 4 -21 -5 -14 -3 -19 3 -15 6
4 8 -2 5 -14 -6 -23 -23 -37 -23 -20 0 7 -7 9 -16 6 -13 -5 -15 -2 -11 14 3
11 1 23 -4 26 -5 3 -9 0 -9 -6 0 -6 -4 -8 -10 -5 -5 3 -10 -1 -10 -10 0 -12
-8 -8 -31 15 -25 24 -34 28 -45 19 -20 -17 -17 -29 8 -29 21 0 21 0 2 -15 -18
-14 -18 -14 11 -15 17 0 37 -5 45 -10 11 -7 5 -8 -18 -4 -24 5 -38 2 -53 -12
-18 -16 -19 -16 -13 -1 4 12 1 17 -11 17 -15 0 -15 3 -5 15 7 9 10 18 6 22 -9
9 -17 -2 -19 -26 -1 -11 -9 -24 -19 -27 -10 -3 -18 -10 -18 -16 0 -5 7 -7 16
-4 17 6 12 -6 -14 -36 -14 -16 -13 -18 8 -18 17 0 20 -3 11 -13 -7 -10 -7 -17
0 -24 7 -7 7 -13 0 -17 -5 -4 -16 4 -23 16 -12 23 -14 29 -17 49 0 6 -8 8 -17
5 -14 -5 -15 -4 -4 9 9 11 10 18 1 28 -6 8 -7 18 -3 22 4 5 -2 5 -13 0 -11 -4
-26 -8 -32 -8 -18 -1 -28 -64 -13 -82 10 -12 9 -20 -4 -40 -12 -18 -14 -29 -6
-38 6 -6 17 -21 25 -32 13 -19 14 -19 9 5 -5 21 -4 23 6 7 12 -19 6 -37 -15
-37 -7 0 -15 -7 -19 -15 -3 -8 -1 -15 4 -15 6 0 10 -11 10 -25 0 -19 -4 -23
-17 -18 -12 5 -15 2 -11 -8 6 -15 3 -16 -57 -22 -31 -3 -32 -6 -20 -44 5 -17
2 -23 -10 -23 -9 0 -13 4 -10 10 10 16 -18 11 -40 -7 -19 -15 -19 -15 6 -9 17
4 32 0 45 -12 11 -10 24 -17 30 -15 6 2 11 -3 11 -11 0 -17 -43 -19 -64 -3 -9
6 -13 6 -13 -2 0 -6 5 -11 10 -11 6 0 10 -4 10 -10 0 -5 -3 -9 -7 -9 -19 3
-33 -2 -33 -11 0 -5 7 -7 15 -4 10 4 15 0 15 -11 0 -9 -4 -13 -10 -10 -5 3
-10 1 -10 -4 0 -6 4 -11 10 -11 5 0 7 -7 4 -15 -4 -8 -13 -15 -21 -15 -8 0
-11 5 -8 10 4 6 0 22 -9 35 -14 22 -14 25 0 39 19 19 10 53 -16 61 -10 3 -21
12 -24 20 -3 8 -11 15 -17 15 -7 0 -10 -3 -6 -6 3 -3 -6 -19 -21 -34 -46 -48
-54 -61 -48 -76 3 -7 12 -14 21 -14 8 0 15 -5 15 -11 0 -7 8 -18 18 -26 12
-10 14 -16 5 -19 -16 -7 -17 -40 -2 -50 8 -4 8 -8 0 -13 -7 -5 -6 -15 4 -34
13 -25 12 -27 -5 -27 -26 0 -34 -17 -14 -28 14 -8 14 -13 5 -28 -11 -16 -12
-16 -7 -1 6 18 -9 24 -19 7 -10 -16 -50 -5 -47 14 4 20 -17 21 -24 1 -4 -8
-12 -15 -19 -15 -19 0 -30 41 -15 50 7 4 10 15 7 23 -3 9 1 21 8 27 8 7 12 16
10 21 -3 4 3 17 13 27 14 14 17 24 10 36 -5 9 -6 16 -3 16 4 0 -1 7 -9 16 -9
8 -21 12 -27 8 -8 -5 -6 -11 7 -21 18 -14 18 -15 -9 -39 -30 -25 -47 -31 -47
-14 0 6 4 10 9 10 5 0 7 9 4 20 -3 11 -1 20 5 20 6 0 14 9 17 20 3 11 14 27
23 37 16 16 16 16 -5 11 -18 -5 -23 -2 -23 12 0 14 -7 18 -34 16 -19 -1 -32 2
-30 6 10 15 12 68 4 68 -5 0 -7 6 -4 13 2 7 -7 30 -21 51 -14 20 -25 42 -25
49 0 7 -5 4 -11 -6 -7 -12 -8 -22 -2 -28 11 -11 -7 -79 -19 -79 -5 0 -8 -6 -8
-14 0 -10 -7 -12 -22 -9 -13 3 -20 3 -16 -2 4 -4 -2 -16 -13 -28 -24 -26 -24
-27 6 -71 26 -39 25 -42 -7 -25 -26 14 -31 8 -18 -25 10 -26 9 -27 -12 -12
-12 9 -29 16 -37 16 -12 0 -12 -3 1 -17 33 -39 35 -58 2 -26 -13 13 -19 14
-22 5 -2 -7 -8 -10 -13 -6 -18 11 -8 -8 14 -27 12 -10 17 -18 10 -19 -6 0 -14
4 -17 9 -3 5 -14 11 -25 14 -18 4 -19 1 -15 -31 2 -20 9 -39 15 -43 6 -3 9
-17 7 -30 -3 -22 -4 -22 -21 -5 -11 12 -16 26 -12 40 4 12 3 16 -2 10 -4 -7
-25 -19 -45 -27 -32 -13 -38 -14 -49 -1 -9 11 -7 14 10 14 24 0 65 36 51 45
-6 4 -14 3 -20 0 -14 -9 -12 8 3 24 10 11 9 13 -5 8 -23 -8 -35 13 -14 25 9 5
16 16 16 25 0 13 3 14 12 5 17 -17 58 -15 58 2 0 8 -17 22 -38 33 -42 20 -43
35 -8 67 14 12 17 20 9 23 -7 2 -9 11 -6 19 3 8 0 14 -6 14 -6 0 -11 -6 -11
-12 0 -10 -2 -10 -8 0 -5 7 -16 10 -25 6 -11 -4 -17 -1 -17 9 0 8 -4 17 -10
19 -15 5 -1 43 22 57 17 11 22 10 29 0 10 -17 14 -12 23 24 6 26 4 28 -17 25
-13 -1 -36 7 -51 20 -16 12 -37 22 -47 22 -11 0 -19 7 -19 15 0 8 -5 15 -11
15 -21 0 -3 34 21 40 15 4 23 12 21 21 -2 8 -4 19 -4 25 0 6 -17 9 -42 7 -37
-4 -43 -1 -48 19 -9 31 -2 33 22 7 l21 -23 0 24 c0 19 3 21 12 12 18 -18 30
-14 23 8 -4 14 -2 20 6 18 8 -2 14 7 15 20 1 17 -4 22 -21 22 -13 0 -25 -6
-28 -12 -2 -7 -26 -19 -53 -27 -27 -8 -55 -18 -62 -24 -21 -16 -25 -1 -11 40
18 52 19 62 8 69 -9 5 19 66 33 72 5 2 8 10 8 17 0 7 5 15 11 17 7 2 9 13 4
27 -5 17 -10 20 -18 12 -16 -16 -37 -14 -37 4 0 8 5 15 11 15 5 0 7 5 3 11 -3
6 0 15 7 20 9 6 10 9 2 9 -6 0 -15 -4 -18 -10 -3 -5 -15 -10 -26 -10 -18 0
-19 2 -4 29 14 28 14 30 -5 26 -15 -3 -20 2 -20 18 0 12 -5 29 -10 37 -7 11
-10 7 -11 -20 -1 -19 0 -45 1 -58 1 -15 -8 -27 -29 -40 -31 -17 -43 -39 -17
-29 28 11 26 -25 -3 -54 -19 -18 -27 -36 -24 -48 4 -15 -2 -20 -30 -25 -44 -8
-60 -27 -51 -61 6 -23 8 -24 23 -12 9 8 31 14 49 12 19 -2 32 2 32 9 0 6 5 4
10 -4 6 -10 10 -11 10 -2 0 6 5 12 10 12 6 0 10 -16 10 -36 0 -35 -1 -36 -34
-32 -21 2 -32 0 -30 -7 2 -5 -6 -23 -19 -39 -31 -38 -105 -59 -142 -40 -39 20
-35 -4 9 -52 32 -35 43 -41 58 -33 14 8 18 6 18 -10 0 -11 6 -21 13 -24 7 -3
-3 -19 -28 -42 -28 -27 -36 -39 -26 -43 10 -3 7 -8 -10 -18 -13 -7 -19 -13
-12 -14 7 0 10 -6 7 -14 -3 -8 -12 -12 -20 -9 -8 3 -14 0 -14 -7 0 -8 -9 -10
-24 -6 -15 4 -28 0 -36 -9 -10 -13 -9 -15 9 -15 15 0 21 -6 21 -23 0 -13 5
-28 12 -35 21 -21 -23 -51 -71 -48 -23 2 -44 -1 -47 -5 -10 -16 -24 -9 -24 11
0 11 -4 20 -10 20 -5 0 -10 9 -10 21 0 11 4 18 9 15 5 -3 12 1 15 10 4 12 1
14 -14 9 -11 -4 -20 -2 -20 4 0 14 -32 46 -60 61 -12 6 -19 17 -17 23 2 7 -2
19 -10 29 -12 13 -12 20 -1 37 9 16 10 24 2 29 -6 4 -10 21 -9 38 1 26 -2 30
-17 26 -13 -3 -15 -9 -9 -20 6 -10 4 -24 -6 -39 -8 -12 -13 -29 -10 -38 4 -8
2 -17 -3 -20 -5 -3 -6 -13 -3 -22 5 -11 3 -14 -6 -8 -8 5 -11 18 -7 37 3 18 2
27 -4 23 -6 -3 -10 -19 -10 -36 0 -40 -54 -75 -85 -55 -14 9 -30 10 -52 4 -37
-10 -41 -20 -15 -46 24 -24 26 -62 4 -62 -26 0 -50 33 -42 56 9 24 2 44 -16
44 -21 0 -35 35 -25 63 8 19 6 27 -5 31 -8 3 -14 12 -14 21 0 8 -6 15 -12 15
-9 0 -8 4 2 11 12 9 11 10 -7 6 -22 -5 -48 14 -36 26 3 4 2 7 -3 7 -5 0 -9 31
-9 69 1 74 -12 134 -15 71 -2 -19 -1 -41 0 -49 1 -8 -4 -18 -12 -22 -10 -7
-10 -9 0 -9 7 0 12 -13 12 -32 0 -18 -4 -28 -8 -23 -4 6 -15 16 -24 23 -15 12
-16 11 -12 -13 3 -17 1 -24 -6 -20 -5 3 -10 0 -11 -7 0 -7 -4 -3 -9 10 -5 12
-14 22 -20 22 -15 0 -24 -28 -13 -43 7 -8 4 -18 -10 -30 -19 -19 -19 -18 -12
3 5 15 4 20 -4 16 -6 -4 -11 -3 -11 2 0 11 -32 12 -46 1 -12 -10 -42 36 -31
47 3 4 2 15 -3 25 -7 12 -6 20 1 25 8 4 7 9 -2 15 -25 16 -40 10 -37 -13 2
-17 -2 -23 -15 -22 -13 2 -16 -3 -11 -18 4 -14 0 -21 -15 -25 -11 -3 -19 -8
-17 -12 3 -4 1 -13 -4 -21 -5 -8 -5 -22 1 -32 6 -12 6 -18 -1 -18 -5 0 -10 6
-10 13 0 15 -36 48 -44 40 -6 -7 -9 11 -7 37 1 11 -1 11 -9 -3 -10 -15 -13
-15 -25 -3 -11 10 -12 22 -5 46 7 26 7 30 -4 21 -11 -9 -15 -6 -20 13 -3 13
-13 26 -21 30 -8 3 -14 2 -12 -2 1 -4 -3 -7 -8 -7 -6 0 -9 21 -6 49 2 33 -1
51 -10 57 -7 4 -10 12 -5 16 4 4 14 -1 22 -11 20 -28 29 -12 13 26 -19 49 -40
79 -50 72 -5 -3 -2 -12 6 -20 8 -9 15 -22 15 -31 0 -22 -33 -60 -48 -55 -6 2
-13 -1 -13 -7 -1 -6 -2 -17 -3 -23 0 -7 -11 -17 -23 -23 -32 -14 -35 -29 -11
-54 15 -17 23 -20 34 -10 11 9 14 7 14 -12 0 -35 -21 -68 -57 -91 l-33 -20 0
26 c0 14 5 26 11 26 6 0 17 6 25 14 16 16 19 40 4 31 -6 -3 -15 6 -20 20 -6
16 -14 23 -22 19 -7 -4 -8 -3 -4 5 10 15 -3 53 -15 46 -5 -4 -9 3 -9 14 0 18
-3 20 -19 9 -11 -7 -17 -16 -15 -20 3 -4 -2 -8 -10 -8 -19 0 -22 46 -3 54 8 3
5 11 -12 25 -13 12 -19 21 -15 21 11 0 34 47 26 54 -3 3 -16 3 -30 -1 -21 -5
-24 -3 -19 11 4 9 2 16 -3 16 -6 0 -10 7 -10 15 0 8 -7 15 -15 15 -8 0 -15 -8
-15 -18 0 -28 -11 -34 -32 -15 -18 16 -19 16 -13 -3 6 -18 6 -18 -8 -1 -13 16
-15 15 -30 -14 l-15 -32 -27 27 c-20 20 -31 24 -38 17 -16 -16 -27 -14 -27 5
0 9 -6 14 -12 11 -7 -2 -11 -15 -10 -28 3 -19 1 -22 -9 -11 -18 16 -29 15 -29
-3 0 -13 -4 -14 -20 -5 -22 12 -27 36 -9 42 9 3 9 9 0 25 -6 12 -7 24 -2 27
13 8 4 88 -11 97 -10 7 -11 12 -1 28 12 19 11 20 -12 9 -13 -6 -22 -14 -20
-18 3 -4 -2 -13 -10 -20 -13 -11 -16 -7 -21 20 -4 18 -10 27 -14 20 -4 -6 -5
-22 -2 -36 3 -15 0 -24 -9 -24 -7 0 -10 -3 -6 -6 7 -8 -17 -34 -32 -34 -25 0
-9 -18 22 -25 17 -4 26 -9 19 -12 -9 -4 -10 -9 -2 -18 7 -9 6 -16 -4 -24 -20
-17 -44 13 -26 34 7 9 8 15 2 15 -14 0 -22 -25 -16 -55 3 -16 1 -24 -5 -21 -5
4 -12 2 -15 -3 -3 -5 9 -12 27 -15 29 -6 30 -8 15 -20 -10 -7 -15 -15 -12 -18
8 -8 -17 -56 -32 -62 -8 -3 -14 1 -14 10 0 11 -6 14 -22 9 -36 -10 -72 -29
-86 -45 -11 -13 -12 -12 -7 8 8 29 -6 28 -29 -3 -15 -19 -22 -23 -32 -14 -11
9 -14 8 -14 -1 0 -8 -8 -10 -25 -6 -18 5 -23 3 -19 -8 6 -16 -12 -31 -21 -17
-3 6 -12 8 -19 5 -7 -3 -15 3 -18 13 -7 26 1 43 17 37 7 -3 23 0 35 6 18 9 24
9 30 0 12 -19 30 -2 30 28 0 44 5 76 13 89 4 6 2 13 -4 15 -6 2 -12 19 -14 38
l-3 35 -60 -3 c-46 -1 -61 1 -66 13 -3 8 -1 15 4 15 5 0 7 7 4 15 -4 8 -1 15
5 15 6 0 11 5 11 11 0 7 -14 10 -35 7 -37 -4 -39 -1 -39 74 0 9 -10 22 -22 28
-12 7 -27 24 -33 38 l-12 25 -15 -21 c-11 -16 -12 -27 -4 -41 14 -28 13 -41
-5 -35 -20 8 -38 -5 -27 -19 5 -7 8 -20 7 -29 -4 -25 8 -22 20 4 6 12 16 23
23 26 9 3 9 -3 -2 -25 -7 -15 -22 -46 -32 -68 -23 -48 -21 -78 6 -70 23 7 27
1 35 -60 6 -46 5 -49 -9 -31 -12 15 -16 16 -16 5 -1 -21 -40 29 -40 52 0 10
-4 21 -10 24 -11 7 -24 -39 -17 -59 4 -11 -7 -16 -44 -21 -27 -4 -49 -10 -49
-14 0 -13 24 -31 41 -31 9 0 22 -7 29 -15 9 -11 9 -15 1 -15 -7 0 -9 -4 -6
-10 3 -6 -3 -10 -14 -10 -11 0 -22 4 -25 9 -3 5 -15 7 -25 4 -10 -3 -28 0 -40
6 -12 7 -21 8 -21 2 0 -5 4 -11 10 -13 6 -2 4 -15 -5 -32 -19 -35 -19 -36 1
-36 13 0 15 -7 10 -37 -6 -32 -5 -36 7 -22 7 9 29 21 49 27 34 9 36 8 41 -15
4 -22 2 -24 -19 -20 -16 3 -24 0 -24 -9 0 -16 -37 -18 -73 -5 -19 8 -27 6 -31
-4 -3 -8 -11 -13 -18 -11 -7 1 -10 1 -5 -1 4 -3 7 -15 7 -28 0 -13 5 -27 10
-30 6 -3 10 -11 10 -16 0 -6 -5 -7 -10 -4 -6 4 -33 -8 -61 -25 -27 -18 -53
-30 -56 -26 -3 3 -12 1 -20 -5 -20 -17 -16 5 7 34 26 33 19 38 -59 46 -9 1
-11 9 -6 28 7 31 25 55 25 35 0 -16 30 -16 30 1 0 6 5 4 11 -5 12 -22 33 -24
25 -3 -4 11 1 15 19 15 22 0 25 4 25 37 0 20 3 33 6 30 4 -3 15 -2 26 4 16 9
20 7 25 -10 3 -12 9 -21 14 -21 15 0 21 21 9 35 -9 11 -31 14 -83 12 -79 -3
-136 16 -137 46 0 15 7 18 33 16 24 -3 31 0 29 11 -1 10 3 8 13 -5 15 -19 16
-19 21 3 4 12 14 22 24 22 10 0 21 6 23 13 4 10 6 10 6 0 1 -17 19 -16 37 1
20 21 17 29 -7 23 -15 -4 -23 0 -26 14 -6 23 -16 24 -48 3 -13 -9 -37 -14 -53
-13 -16 2 -37 -3 -46 -10 -14 -12 -16 -10 -16 12 0 20 6 26 33 30 17 2 35 0
39 -6 4 -6 10 -8 14 -4 4 4 -7 25 -25 48 -32 39 -32 41 -12 46 27 7 21 29 -7
26 -17 -2 -22 6 -31 49 -9 40 -9 53 1 60 8 6 5 7 -9 3 -26 -7 -29 -2 -9 18 12
12 10 16 -15 31 -25 15 -28 15 -23 1 3 -8 11 -15 16 -15 6 0 5 -7 -2 -15 -7
-9 -13 -34 -12 -55 2 -37 0 -40 -26 -40 -26 -1 -27 -1 -7 -16 19 -15 18 -16
-15 -12 -19 3 -42 7 -50 10 -8 3 -12 3 -7 1 4 -3 7 -11 7 -19 0 -8 4 -13 9
-11 5 1 17 -7 25 -18 14 -18 15 -19 16 -2 0 10 4 15 10 12 19 -12 -18 -65 -45
-65 -14 0 -25 -6 -25 -13 0 -7 -9 -19 -19 -26 -11 -8 -17 -20 -14 -27 2 -6 0
-15 -6 -19 -6 -3 -8 -17 -5 -31 4 -17 2 -24 -9 -24 -17 0 -29 -48 -13 -53 6
-2 18 14 28 35 12 26 23 38 38 38 27 0 36 -3 32 -13 -5 -17 30 -18 48 -2 11
10 20 14 20 8 0 -5 10 -9 21 -9 24 1 33 -12 21 -32 -6 -8 -35 -13 -78 -15 -38
-1 -75 -8 -82 -14 -7 -7 -22 -13 -33 -13 -11 0 -17 -5 -14 -10 3 -6 0 -10 -8
-10 -7 0 -18 -15 -24 -34 -9 -28 -8 -37 6 -50 14 -15 14 -18 1 -26 -8 -5 -11
-10 -5 -10 5 0 4 -5 -3 -12 -7 -7 -12 -20 -12 -30 0 -10 -3 -19 -7 -19 -5 -1
-18 -3 -29 -4 -29 -3 -69 -41 -54 -50 7 -4 9 -18 5 -36 -4 -18 -3 -29 4 -29
19 0 12 -17 -19 -48 -30 -30 -32 -62 -5 -58 19 3 55 45 55 65 0 14 2 14 10 1
5 -8 10 -27 10 -41 0 -34 27 -59 41 -38 5 8 9 22 9 32 0 9 5 17 10 17 6 0 10
8 10 18 0 13 2 14 9 4 6 -11 16 -7 40 17 18 17 36 29 42 26 5 -4 7 -10 5 -14
-3 -4 13 -8 34 -8 29 0 37 3 33 13 -4 10 3 14 22 14 20 0 26 -4 23 -17 -2 -14
-16 -19 -63 -23 -62 -5 -62 -5 -56 -54 1 -5 8 -3 16 4 8 7 13 16 10 20 -3 4 2
10 10 14 19 7 19 -4 0 -30 -8 -12 -11 -25 -7 -28 10 -11 11 -66 1 -66 -6 0
-12 7 -15 15 -6 16 -54 21 -54 6 0 -15 -78 -51 -110 -51 -17 0 -30 -4 -30 -10
0 -5 5 -10 10 -10 6 0 5 -8 -2 -20 -11 -17 -10 -22 2 -31 11 -8 4 -9 -26 -5
-31 4 -43 2 -47 -8 -3 -8 -25 -17 -48 -21 -23 -4 -38 -10 -33 -14 15 -10 16
-43 2 -52 -7 -4 -13 -16 -13 -26 0 -12 -8 -18 -24 -18 -18 0 -24 -6 -27 -27
-1 -17 3 -31 13 -37 11 -6 12 -10 4 -15 -17 -11 -13 -33 8 -39 13 -3 21 1 24
14 5 19 27 27 27 11 0 -10 51 -9 67 1 6 4 14 24 18 44 6 32 9 35 15 18 5 -11
9 -14 9 -7 1 6 7 12 14 12 9 0 12 -19 11 -67 -2 -95 -1 -93 -28 -93 -13 0 -26
-7 -30 -15 -3 -8 -15 -15 -26 -15 -11 0 -20 -4 -20 -10 0 -5 -7 -10 -15 -10
-8 0 -15 -7 -15 -15 0 -8 -9 -30 -20 -49 -18 -32 -13 -55 8 -42 5 3 6 -8 4
-24 -4 -31 -18 -33 -79 -15 -14 5 -23 3 -23 -4 0 -6 7 -11 15 -11 8 0 15 -4
15 -10 0 -5 -6 -7 -14 -4 -8 3 -16 -3 -19 -15 -3 -12 -12 -21 -21 -21 -9 0
-16 -4 -16 -9 0 -5 -9 -13 -20 -16 -11 -4 -18 -11 -14 -16 3 -6 -2 -19 -12
-30 -14 -16 -15 -22 -5 -28 17 -11 27 -86 12 -95 -6 -4 -11 -1 -11 8 0 17 -9
20 -34 10 -21 -8 -21 -24 0 -24 8 0 12 -5 9 -10 -4 -6 -16 -10 -28 -8 -19 3
-22 -1 -19 -27 2 -24 1 -27 -8 -15 -9 12 -11 8 -6 -17 4 -23 1 -33 -12 -38 -9
-3 -18 -1 -20 4 -2 7 -9 5 -18 -3 -18 -19 -18 -24 4 -29 16 -4 16 -5 -1 -6
-13 -1 -17 -6 -12 -20 4 -14 0 -23 -15 -31 -11 -6 -18 -15 -15 -20 3 -5 1 -11
-5 -15 -6 -4 -10 5 -10 21 0 22 -2 25 -15 14 -8 -7 -22 -9 -31 -6 -17 6 -44
-9 -44 -25 0 -5 6 -9 14 -9 7 0 19 -7 26 -15 7 -8 8 -15 2 -15 -5 0 -12 -9
-15 -20 -3 -11 -13 -20 -22 -20 -9 0 -13 -5 -10 -10 3 -6 -1 -10 -9 -10 -9 0
-16 -4 -16 -8 0 -5 -13 -9 -30 -10 -16 0 -30 4 -30 9 0 6 5 7 10 4 6 -3 10 1
10 9 0 9 -4 17 -10 17 -5 1 -15 2 -21 3 -6 0 -16 9 -23 19 -19 25 -26 21 -26
-18 0 -19 -4 -35 -10 -35 -6 0 -5 -10 2 -25 9 -19 8 -29 -6 -49 -9 -15 -22
-23 -30 -20 -8 3 -17 1 -21 -5 -7 -13 -45 -15 -45 -3 0 4 5 13 12 20 9 9 8 12
-5 12 -20 0 -23 16 -4 23 6 3 2 6 -10 6 -30 1 -29 14 1 36 15 11 22 24 18 34
-5 14 -3 14 10 3 14 -11 16 -10 11 9 -5 19 -3 21 15 17 12 -4 20 -2 16 3 -3 5
-12 9 -20 9 -8 0 -14 7 -14 15 0 8 -7 15 -15 15 -9 0 -15 9 -15 24 0 13 -7 26
-15 30 -8 3 -15 13 -15 21 0 9 4 14 8 11 4 -2 14 9 21 25 8 18 20 29 32 29 11
0 18 4 15 9 -8 12 -107 11 -130 -1 -32 -17 -42 8 -11 28 25 16 26 19 10 30
-16 12 -15 14 9 20 14 3 26 10 26 16 0 5 8 7 19 3 12 -4 21 0 25 11 10 26 2
27 -51 9 -82 -29 -112 -34 -106 -19 3 8 14 14 24 14 20 0 22 7 19 51 -1 20 11
39 43 70 45 45 52 71 17 62 -11 -3 -27 -3 -35 1 -13 5 -13 9 -3 25 16 26 4 37
-25 23 -26 -13 -89 -20 -88 -9 1 4 4 8 9 9 4 0 13 14 21 29 7 16 17 27 21 24
4 -3 10 2 14 10 3 8 12 15 20 15 7 0 16 7 20 15 6 17 -9 21 -19 5 -3 -6 -16 1
-28 14 -18 19 -26 22 -41 14 -16 -9 -18 -7 -14 13 5 31 -23 60 -46 47 -10 -5
-24 -7 -33 -4 -13 5 -11 11 11 31 27 25 37 46 11 25 -15 -12 -35 -6 -35 11 0
5 7 9 15 9 8 0 15 7 15 15 0 8 -4 15 -10 15 -5 0 -10 -5 -10 -11 0 -8 -5 -8
-15 1 -12 10 -15 9 -15 -4 0 -10 -4 -15 -9 -12 -4 3 -6 -6 -3 -20 4 -23 2 -24
-22 -18 -16 4 -26 2 -26 -5 0 -6 7 -11 16 -11 11 0 14 -5 9 -17 -4 -10 -10
-26 -12 -35 -3 -10 -12 -18 -20 -18 -11 0 -14 -7 -10 -20 4 -17 0 -22 -24 -27
-16 -3 -26 -9 -23 -14 3 -5 -4 -9 -15 -9 -14 0 -19 -5 -15 -15 4 -8 10 -13 14
-10 9 5 70 -48 70 -61 0 -3 -26 -5 -57 -4 -85 3 -91 2 -73 -13 20 -16 40 -53
40 -72 0 -20 37 -19 48 1 11 20 28 12 35 -16 5 -19 2 -20 -51 -16 -32 2 -66 8
-77 12 -15 5 -13 0 10 -23 17 -17 36 -28 42 -26 14 5 43 -20 43 -36 0 -6 5
-11 10 -11 6 0 10 14 10 31 0 16 4 28 9 24 5 -3 12 -1 16 5 10 16 25 12 19 -5
-4 -8 -1 -15 5 -15 6 0 11 -4 11 -10 0 -5 -9 -10 -19 -10 -10 0 -22 -7 -25
-16 -5 -13 -19 -15 -71 -12 -36 1 -65 0 -65 -4 0 -5 7 -8 15 -8 9 0 12 -6 8
-17 -5 -11 -2 -15 8 -11 19 6 50 -27 37 -40 -6 -6 -6 -12 2 -17 8 -5 3 -14
-17 -26 -15 -10 -25 -19 -20 -20 4 -1 13 -2 19 -3 7 0 14 -10 16 -20 3 -15 0
-18 -19 -13 -13 3 -29 1 -36 -5 -7 -6 -13 -7 -13 -4 0 4 -9 2 -21 -4 -28 -16
-73 -4 -65 16 10 25 -11 53 -34 47 -23 -6 -26 -19 -7 -26 6 -3 3 -6 -8 -7 -11
0 -39 -3 -62 -5 -47 -4 -74 15 -54 38 6 8 8 16 5 20 -3 3 -1 14 5 26 9 17 8
22 -9 31 -36 19 -19 46 35 54 6 0 14 11 20 24 5 12 15 22 22 22 7 0 13 7 13
15 0 7 8 19 18 24 16 10 16 10 -2 11 -18 0 -18 1 -3 18 16 17 16 19 0 17 -10
-1 -25 -5 -34 -9 -10 -4 -23 -6 -30 -5 -8 2 -23 -1 -34 -7 -11 -6 -33 -7 -50
-3 -16 3 -24 7 -16 8 13 1 12 15 -4 54 -5 13 -2 17 14 17 14 0 21 -6 21 -19 0
-29 17 -35 26 -9 7 22 7 22 15 3 5 -14 8 -16 8 -4 1 11 11 15 35 14 27 0 33 2
24 12 -5 7 -8 19 -5 28 8 19 -11 31 -26 16 -16 -16 -24 -14 -30 9 -3 11 -1 20
4 20 5 0 9 7 9 17 0 9 3 13 6 10 7 -7 44 30 44 44 0 5 -16 6 -36 3 -20 -3 -47
-7 -60 -8 -12 -1 -30 -9 -39 -16 -9 -7 -15 -9 -14 -4 5 26 -2 36 -21 31 -23
-6 -25 5 -8 33 18 29 4 34 -32 12 -30 -19 -33 -19 -49 -3 -19 19 -44 72 -37
79 10 9 38 -8 43 -27 3 -11 14 -22 25 -25 16 -4 18 -2 9 7 -14 14 -15 51 -1
42 6 -3 10 -1 10 5 0 8 6 8 20 0 17 -9 20 -8 20 12 1 21 2 21 11 5 6 -9 14
-15 20 -12 14 9 11 35 -5 35 -8 0 -22 7 -30 16 -12 12 -26 14 -56 9 -45 -8
-48 -4 -23 25 10 11 20 15 23 9 9 -14 40 0 40 20 1 13 3 12 12 -4 6 -11 13
-22 15 -25 5 -6 23 22 23 36 0 12 -36 27 -57 25 -7 -1 -13 3 -13 8 0 5 -12 9
-27 8 -22 -2 -28 3 -29 18 0 11 -3 27 -6 35 -22 63 -26 85 -19 98 5 9 5 27 0
41 -15 47 -18 90 -6 95 7 2 4 5 -6 5 -14 1 -18 8 -15 29 2 15 -1 29 -6 32 -11
6 -18 -59 -25 -227 -1 -17 -9 -24 -36 -29 -39 -7 -41 -11 -21 -37 14 -19 45
-20 58 -2 15 21 17 -4 4 -37 -21 -50 -36 -59 -77 -48 -57 16 -62 12 -27 -23
18 -18 39 -31 46 -29 8 3 10 -2 6 -14 -5 -18 -5 -18 9 -1 13 16 47 15 47 -2 0
-12 -17 -32 -26 -30 -21 4 -31 -3 -42 -27 -9 -19 -19 -25 -40 -23 -15 1 -40 1
-55 1 -28 -2 -28 -2 -10 -26 14 -18 22 -22 36 -15 13 7 19 6 23 -6 3 -8 12
-15 20 -15 25 0 15 -17 -26 -44 -43 -28 -50 -39 -24 -34 10 2 19 -3 21 -10 4
-10 -7 -12 -43 -10 -57 4 -67 22 -25 45 33 19 43 40 14 28 -10 -5 -29 -8 -43
-9 -21 -1 -25 3 -22 24 5 49 3 61 -17 89 -27 38 -27 55 0 48 15 -4 23 0 26 13
3 10 12 21 21 25 14 5 15 7 2 16 -11 8 -12 12 -2 16 17 7 15 24 -2 17 -8 -3
-16 -14 -19 -25 -3 -12 -34 -33 -83 -56 -43 -20 -90 -51 -105 -68 l-27 -30
-26 24 c-23 21 -27 49 -6 36 5 -3 11 -1 15 5 3 5 17 10 30 10 20 0 25 7 31 35
3 20 13 42 21 50 12 13 17 13 36 0 20 -13 24 -12 45 10 13 13 18 26 13 29 -5
4 6 22 24 41 21 20 30 37 24 41 -6 3 -17 -3 -25 -15 -8 -12 -24 -21 -34 -21
-10 0 -22 -5 -25 -10 -10 -16 -27 0 -20 19 3 9 -5 4 -19 -11 -30 -32 -60 -28
-62 8 -2 19 8 31 39 51 23 14 52 29 66 33 20 5 26 13 28 41 l2 34 -18 -23
c-11 -12 -22 -22 -26 -22 -3 0 -24 -17 -46 -37 -22 -20 -46 -38 -53 -39 -19
-3 -66 -52 -66 -69 0 -8 -4 -15 -10 -15 -5 0 -10 5 -10 10 0 6 -11 8 -25 4
-14 -3 -25 -2 -25 3 0 15 36 44 44 36 4 -4 4 0 0 10 -4 12 -1 17 10 17 9 0 16
7 16 15 0 9 7 15 15 13 9 -2 21 8 28 22 7 14 23 27 36 28 15 2 21 0 16 -7 -4
-8 1 -8 18 0 14 6 30 22 36 35 12 27 11 28 -23 13 -20 -9 -28 -9 -40 4 -9 9
-16 22 -16 29 -1 9 -4 8 -10 -3 -5 -9 -8 -25 -5 -37 2 -13 -3 -22 -15 -25 -24
-6 -34 18 -19 45 10 18 8 24 -12 39 l-24 18 23 -6 c16 -4 22 -1 22 11 0 10 5
14 11 10 8 -5 8 -1 0 14 -7 14 -8 23 -1 27 6 4 8 11 4 16 -3 5 -10 7 -15 3
-13 -8 -7 39 7 57 6 8 14 22 17 32 6 15 0 14 -37 -7 -24 -14 -46 -22 -49 -20
-3 3 -1 19 3 35 5 18 5 29 -1 29 -9 0 -7 17 8 58 3 6 -2 12 -11 12 -9 0 -16 6
-17 13 0 6 -7 -3 -15 -20 -9 -21 -21 -33 -33 -33 -28 0 -52 11 -45 21 3 5 0 9
-6 9 -6 0 -8 5 -4 12 4 6 7 27 6 46 -1 23 5 40 16 48 11 9 13 17 7 21 -35 27
-37 42 -14 80 l22 38 -22 -22 c-12 -13 -26 -23 -31 -23 -19 0 -10 28 15 44 14
9 25 21 25 27 0 8 -5 7 -15 -1 -13 -10 -15 -9 -15 9 0 11 -4 21 -10 21 -5 0
-10 7 -10 15 0 8 -5 15 -11 15 -6 0 -9 -6 -7 -12 3 -7 -1 -19 -9 -26 -15 -15
-18 -42 -4 -42 5 0 11 -11 13 -25 3 -14 1 -25 -3 -25 -5 0 -9 -11 -9 -25 0
-18 -4 -23 -15 -19 -8 4 -15 13 -15 20 0 12 -4 13 -22 3 -14 -8 -18 -14 -10
-17 6 -2 12 -17 12 -33 0 -29 0 -29 -30 -14 -37 19 -51 19 -43 0 3 -9 8 -14
10 -11 3 3 17 -6 31 -19 14 -13 29 -22 34 -19 4 3 8 0 8 -6 0 -6 -7 -13 -15
-16 -8 -4 -12 -10 -9 -16 3 -5 3 -20 0 -33 -6 -24 -7 -24 -41 -8 -40 19 -55
11 -36 -18 14 -24 9 -35 -11 -23 -19 12 -38 14 -38 3 0 -5 5 -9 10 -9 6 0 10
-7 10 -16 0 -8 14 -20 30 -25 22 -8 30 -17 30 -35 0 -16 -6 -24 -17 -24 -15 0
-16 -2 -3 -10 8 -5 19 -5 25 0 6 5 20 7 30 5 11 -2 23 -4 28 -4 4 -1 7 -5 7
-10 0 -5 -6 -8 -12 -7 -7 0 -13 -3 -13 -9 0 -5 4 -9 9 -7 5 2 2 -7 -6 -20 -12
-18 -24 -23 -55 -22 -21 1 -49 7 -62 13 -32 17 -36 8 -12 -26 11 -15 23 -41
27 -57 6 -26 5 -28 -12 -21 -10 4 -34 11 -52 15 -18 4 -39 14 -47 20 -12 10
-15 9 -15 -9 0 -17 20 -29 33 -18 7 5 37 -33 37 -47 0 -20 10 -20 39 0 18 13
25 14 31 4 4 -7 13 -9 19 -6 10 7 16 -12 12 -42 -1 -8 7 -16 17 -19 19 -5 19
-6 4 -34 -22 -38 -43 -45 -62 -19 -17 22 -30 18 -30 -10 0 -13 -10 -17 -41
-18 -23 -1 -46 1 -52 5 -19 12 -58 9 -69 -5 -9 -10 -8 -16 2 -22 8 -5 18 -6
22 -4 4 3 8 1 8 -4 0 -6 -12 -13 -26 -16 -27 -7 -28 -33 0 -28 9 2 16 -4 16
-13 0 -24 24 -12 28 13 2 12 7 22 12 22 4 0 6 -9 3 -20 -3 -11 0 -20 6 -20 6
0 3 -8 -6 -18 -10 -10 -24 -16 -31 -14 -12 4 -12 1 -1 -16 10 -16 16 -18 26
-10 9 7 17 7 28 -2 17 -14 20 -36 5 -43 -6 -3 -5 -4 2 -3 7 2 25 -3 39 -10 15
-7 29 -10 33 -7 3 4 6 2 6 -4 0 -14 -25 -19 -87 -18 -46 2 -51 0 -43 -15 10
-18 38 -35 54 -31 5 1 6 -9 4 -23 -4 -18 -1 -23 9 -19 8 3 20 -2 27 -12 7 -10
18 -15 24 -11 8 5 10 2 6 -8 -6 -17 -44 -23 -44 -7 0 4 -23 6 -51 3 -37 -3
-54 -1 -60 9 -7 10 -9 8 -7 -9 2 -12 7 -22 12 -22 8 2 26 -19 26 -31 0 -8 -54
-4 -68 5 -14 8 -15 -3 -3 -23 5 -7 14 -10 20 -7 7 5 11 -1 11 -14 0 -18 3 -19
20 -10 14 8 20 8 20 0 0 -7 8 -9 22 -5 17 6 20 4 15 -9 -7 -18 22 -88 34 -80
4 2 20 -7 34 -21 39 -35 27 -55 -32 -55 -26 0 -54 -4 -62 -9 -9 -6 -24 -6 -38
0 -21 8 -24 7 -18 -10 4 -12 0 -21 -12 -25 -15 -6 -15 -8 -3 -16 24 -15 60
-12 60 5 0 8 5 15 10 15 6 0 10 -4 10 -10 0 -20 28 -10 35 13 6 18 8 19 12 5
2 -9 -1 -26 -7 -37 -7 -14 -7 -21 0 -21 17 0 11 -17 -7 -24 -10 -3 -28 -12
-41 -20 l-23 -13 23 -15 22 -15 -23 -19 c-41 -34 -70 -67 -65 -76 7 -12 34
-10 34 2 0 10 41 7 60 -5 5 -3 10 -14 10 -23 0 -11 -3 -13 -11 -5 -14 14 -79
-5 -79 -23 0 -7 -5 -16 -12 -20 -6 -4 -8 -3 -4 4 3 6 2 13 -4 17 -6 4 -8 11
-5 16 9 14 -18 10 -39 -6 -13 -10 -33 -13 -65 -9 -61 7 -72 18 -66 66 5 33 3
39 -9 35 -9 -4 -18 -2 -21 3 -3 5 4 11 15 15 13 4 20 15 20 31 0 14 6 24 14
24 8 0 18 9 21 20 3 11 11 20 16 20 5 0 9 4 9 9 0 4 -20 7 -45 5 -51 -4 -64
10 -45 45 10 19 8 21 -20 21 -32 0 -41 14 -15 24 22 8 18 25 -4 19 -33 -9 -37
34 -6 63 22 20 25 27 15 39 -10 12 -9 15 4 15 9 0 16 7 16 15 0 12 -4 13 -19
4 -11 -7 -26 -9 -37 -4 -11 4 -23 9 -29 10 -5 0 -23 5 -38 9 -26 8 -27 10 -13
31 13 20 13 26 -3 58 -17 34 -17 36 0 50 9 9 19 13 22 11 2 -3 7 2 10 9 3 9
-4 20 -19 27 -25 14 -32 30 -13 30 6 0 9 7 5 15 -3 8 -2 15 2 15 4 0 7 18 7
40 1 22 -3 40 -7 40 -4 0 -8 9 -8 19 0 12 -9 21 -24 25 -13 3 -34 22 -46 41
-12 19 -25 33 -30 30 -4 -2 -8 6 -7 20 0 14 3 22 8 20 4 -3 10 -1 13 4 4 5 1
13 -5 16 -6 4 -8 17 -5 29 4 16 1 23 -10 23 -10 0 -14 -8 -12 -23 3 -25 -27
-64 -51 -65 -10 0 -12 -2 -4 -6 9 -3 10 -10 3 -24 -10 -18 -3 -24 23 -20 12 2
8 -34 -7 -54 -12 -16 -18 -17 -39 -8 -25 11 -25 11 -17 -17 4 -16 6 -31 2 -34
-3 -3 -1 -6 4 -6 11 0 12 -60 1 -77 -5 -7 -5 -18 -2 -23 3 -5 1 -10 -4 -10 -6
0 -11 -6 -11 -14 0 -18 -27 -27 -62 -21 -16 3 -28 1 -28 -4 0 -5 -6 -11 -12
-14 -7 -2 -3 -2 9 0 18 2 26 -4 38 -29 8 -18 13 -25 11 -16 -5 15 -2 16 14 6
14 -9 22 -9 33 1 10 8 17 9 22 1 9 -15 28 -12 22 4 -6 16 11 36 31 36 11 0 13
-8 8 -34 -6 -33 6 -57 19 -36 11 18 20 10 22 -20 1 -17 -2 -30 -7 -30 -6 0
-10 6 -10 13 0 9 -3 8 -9 -2 -5 -7 -14 -10 -20 -7 -6 4 -9 11 -6 15 2 5 -6 6
-19 4 -13 -3 -30 2 -39 11 -19 20 -31 20 -47 1 -9 -10 -17 -12 -30 -5 -12 7
-28 6 -49 -3 l-31 -13 19 -23 c11 -13 24 -20 30 -17 15 10 41 -5 41 -23 0 -9
5 -22 11 -28 13 -13 -33 -27 -61 -18 -11 3 -20 0 -24 -10 -3 -8 0 -15 7 -15 9
0 8 -3 -1 -9 -11 -7 -11 -11 1 -23 20 -20 9 -34 -33 -43 l-35 -8 34 -12 c19
-6 37 -17 39 -23 2 -7 13 -10 28 -6 18 5 24 2 24 -10 0 -10 6 -13 15 -10 11 5
15 -1 15 -20 0 -28 -36 -76 -57 -76 -16 0 -16 -5 -3 -30 7 -13 6 -21 -5 -30
-15 -13 -59 -4 -50 10 3 5 -4 12 -15 15 -21 7 -40 41 -40 72 0 10 6 13 17 9
10 -4 14 -4 10 0 -4 4 -2 13 4 20 15 18 -6 27 -32 13 -20 -10 -21 -9 -17 14 5
26 -14 43 -33 31 -5 -3 -9 2 -9 10 0 9 -5 16 -11 16 -6 0 -9 7 -6 15 4 8 2 17
-3 20 -6 4 -7 13 -1 24 11 20 5 31 -26 49 -29 15 -34 15 -27 -2 3 -8 1 -17 -4
-20 -6 -3 -8 -14 -6 -24 3 -9 -4 -27 -15 -39 -25 -26 -27 -37 -6 -29 9 3 15 0
15 -10 0 -12 -6 -15 -26 -10 -21 6 -25 4 -21 -8 3 -8 -1 -20 -9 -26 -8 -7 -14
-17 -14 -23 0 -17 -52 -59 -66 -53 -8 3 -14 1 -14 -4 0 -5 -9 -11 -19 -15 -19
-6 -19 -7 -4 -25 18 -21 38 -17 29 6 -7 18 8 18 23 1 8 -10 7 -18 -2 -31 -10
-14 -18 -15 -40 -7 -15 6 -27 15 -27 21 0 5 -9 10 -19 10 -11 0 -23 5 -26 10
-5 8 -11 8 -20 0 -10 -8 -14 -7 -18 2 -4 9 -6 7 -6 -4 -1 -9 10 -29 23 -45 36
-43 42 -77 18 -99 -14 -14 -19 -27 -15 -46 3 -16 10 -28 15 -28 5 0 6 -5 3
-10 -4 -6 -14 -1 -25 12 -16 19 -19 20 -20 6 0 -12 -5 -15 -17 -11 -11 4 -14
3 -9 -5 4 -7 0 -19 -8 -27 -13 -14 -16 -14 -24 1 -7 13 -10 10 -16 -16 -6 -32
-7 -33 -26 -15 -23 21 -26 35 -6 35 8 0 20 14 28 30 10 24 18 30 34 26 14 -4
21 -1 21 9 0 8 -4 12 -9 9 -4 -3 -8 -1 -8 4 0 17 -35 19 -50 4 -11 -12 -15
-13 -18 -2 -3 7 3 17 11 22 9 5 14 15 10 23 -3 9 0 22 7 30 15 18 7 19 -22 4
-23 -13 -35 -5 -20 13 14 18 -11 53 -33 45 -18 -7 -19 -3 -4 25 10 18 9 20 -5
15 -8 -3 -18 -2 -21 3 -4 6 -1 10 4 10 19 0 12 18 -9 25 -18 6 -20 13 -17 61
4 47 2 54 -14 54 -21 0 -25 -15 -8 -26 7 -4 8 -23 4 -51 -4 -29 -3 -43 4 -39
5 4 12 2 16 -4 3 -6 -3 -10 -16 -10 -12 0 -28 -8 -36 -17 -13 -16 -14 -16 -9
-1 3 10 -2 19 -12 23 -9 3 -13 3 -9 -1 10 -11 -56 -44 -67 -33 -6 6 -3 14 9
22 27 21 14 67 -17 60 -23 -5 -23 -5 -3 11 17 13 18 17 5 25 -8 5 -18 7 -24 4
-6 -4 -6 1 -2 13 15 36 15 63 0 57 -10 -4 -14 3 -14 21 0 15 -7 29 -15 32 -8
4 -12 10 -9 15 7 12 -17 11 -35 0 -8 -5 -12 -18 -8 -30 3 -12 1 -21 -4 -21 -5
0 -9 -5 -9 -10 0 -6 3 -9 8 -9 18 3 20 -3 7 -27 -7 -15 -11 -32 -8 -39 2 -8
-5 -19 -18 -25 -18 -10 -24 -9 -31 4 -15 26 -34 19 -33 -14 0 -17 3 -30 6 -30
3 0 6 -7 6 -16 0 -12 -7 -14 -26 -9 -27 7 -41 21 -41 43 0 7 -5 10 -11 6 -8
-4 -9 0 -4 15 7 23 -5 27 -36 11 -13 -7 -19 -7 -19 0 0 5 5 10 11 10 6 0 9 9
6 20 -3 10 1 27 9 37 17 22 18 34 2 31 -12 -3 -14 3 -17 43 0 11 -6 17 -11 14
-6 -3 -10 3 -10 15 0 13 -5 20 -12 18 -7 -3 -13 -9 -13 -14 0 -17 -15 -33 -28
-30 -7 1 -9 1 -4 -1 4 -3 7 -11 7 -19 0 -8 6 -14 13 -14 6 0 4 -5 -6 -11 -9
-6 -26 -8 -36 -4 -15 5 -18 1 -13 -20 2 -14 0 -25 -7 -25 -5 0 -8 -7 -5 -15 6
-15 -7 -21 -20 -8 -10 11 -36 12 -36 2 0 -5 4 -9 8 -9 4 0 14 -17 21 -37 7
-21 24 -50 37 -64 24 -25 24 -26 5 -43 -11 -10 -27 -16 -36 -13 -11 5 -15 0
-15 -18 0 -20 -5 -25 -25 -25 -26 0 -35 15 -13 22 27 9 -1 34 -36 33 -35 -2
-35 -1 -19 17 14 16 15 21 4 28 -13 8 -12 46 3 82 6 13 3 15 -13 11 -24 -6
-27 4 -7 26 12 14 12 18 0 29 -8 7 -14 8 -14 2 0 -5 -7 -10 -15 -10 -8 0 -15
9 -15 20 0 14 6 20 16 18 10 -2 19 2 21 8 2 7 -6 10 -22 6 -14 -2 -25 -1 -24
4 1 5 1 11 -1 14 -11 31 -7 51 16 69 l26 20 -31 -4 c-17 -2 -35 -6 -41 -10
-15 -9 -50 13 -44 29 3 7 -6 23 -20 34 -29 22 -35 45 -9 35 11 -5 14 -3 8 6
-6 10 -3 11 12 3 15 -9 22 -7 33 8 8 10 17 17 22 14 4 -3 8 1 8 10 0 8 3 16 8
19 15 8 -14 -2 -50 -17 -25 -11 -39 -12 -43 -5 -4 6 2 13 14 16 12 3 21 9 21
14 0 8 -22 6 -85 -6 -14 -3 -24 4 -31 20 -10 21 -9 25 7 30 10 4 19 11 19 16
0 5 6 9 13 8 29 -4 41 1 30 12 -13 13 -5 51 10 42 6 -4 7 -1 3 6 -6 8 -21 10
-47 6 -32 -6 -38 -4 -33 8 3 9 13 18 21 21 13 5 12 9 -7 26 -12 10 -27 21 -33
24 -9 5 -9 7 0 12 7 3 9 14 3 34 -4 16 -5 32 -2 36 4 4 -1 4 -10 1 -17 -6 -23
6 -19 41 1 6 -5 12 -13 12 -11 0 -13 -6 -6 -30 9 -31 2 -43 -22 -37 -7 2 -10
2 -5 0 4 -3 7 -11 7 -18 0 -7 6 -16 13 -19 6 -4 2 -4 -10 -2 -20 3 -21 1 -12
-15 15 -28 -15 -57 -42 -41 -10 6 -21 8 -23 3 -3 -5 1 -11 9 -15 8 -3 15 -11
15 -18 0 -7 8 -18 18 -25 14 -8 18 -20 14 -42 -3 -19 2 -36 11 -46 14 -14 17
-14 26 2 5 10 13 15 17 11 8 -9 -16 -47 -56 -88 -27 -28 -34 -60 -9 -44 5 3 8
0 7 -7 -2 -7 3 -14 10 -15 6 -1 14 -2 17 -3 3 0 1 -10 -5 -21 -8 -16 -15 -18
-29 -10 -10 5 -20 7 -22 5 -3 -2 -22 0 -44 5 -23 5 -46 5 -56 -1 -11 -6 -20
-6 -24 0 -6 11 -45 10 -45 0 0 -4 9 -11 21 -14 12 -4 30 -14 40 -24 11 -9 25
-16 32 -16 7 0 14 -11 15 -24 3 -20 1 -23 -20 -18 -19 5 -26 1 -36 -22 -10
-22 -17 -27 -37 -23 -19 3 -25 0 -25 -13 0 -12 6 -16 20 -12 16 4 20 0 20 -18
0 -28 22 -47 44 -39 22 9 21 -28 -2 -48 -14 -13 -120 -52 -123 -45 0 1 -2 12
-5 24 -2 13 -17 35 -34 51 -27 26 -28 30 -15 49 8 12 12 29 9 37 -7 18 13 49
26 41 12 -7 42 25 37 39 -2 6 -14 13 -27 14 -33 5 -49 31 -43 69 6 34 -4 42
-25 21 -9 -9 -12 -9 -12 1 0 8 -7 19 -16 26 -16 11 -16 12 0 18 9 4 16 2 16
-3 0 -6 5 -10 10 -10 19 0 10 27 -15 46 -14 10 -25 24 -25 31 0 7 -4 13 -9 13
-17 0 -20 64 -4 77 14 11 14 14 0 27 -8 8 -17 12 -21 9 -3 -4 -6 -1 -6 6 0 8
-11 6 -34 -9 -20 -11 -37 -17 -40 -11 -8 12 10 58 30 78 14 15 14 17 0 25 -9
5 -14 14 -10 20 4 6 -1 6 -14 -1 -30 -16 -41 -13 -35 9 3 11 0 20 -5 20 -7 0
-10 16 -7 40 3 29 0 40 -10 40 -8 0 -11 7 -8 20 3 11 0 20 -6 20 -11 0 -20
-14 -25 -42 -6 -29 -19 -48 -32 -48 -16 0 -19 -16 -4 -25 5 -3 10 -15 10 -26
0 -11 -4 -18 -9 -15 -5 4 -16 3 -25 0 -12 -5 -13 -10 -5 -26 10 -19 9 -20 -10
-15 -19 5 -20 4 -6 -16 22 -32 20 -56 -5 -50 -11 3 -20 1 -20 -4 0 -6 9 -22
20 -36 25 -31 25 -36 1 -30 -10 3 -22 0 -26 -6 -4 -8 -11 -6 -21 4 -20 20 -39
9 -22 -13 11 -13 11 -14 -1 -7 -10 5 -12 4 -7 -4 4 -6 9 -25 11 -42 3 -17 8
-36 13 -43 5 -6 12 -19 16 -30 5 -15 2 -18 -19 -14 -20 4 -23 3 -14 -8 13 -16
1 -18 -21 -5 -8 6 -18 7 -23 4 -5 -3 -3 -9 4 -14 12 -8 12 -10 0 -18 -10 -6
-11 -13 -2 -29 16 -30 14 -33 -15 -26 -20 5 -25 4 -19 -6 4 -7 2 -16 -6 -22
-11 -7 -11 -11 -1 -15 6 -2 12 -11 12 -18 0 -8 8 -19 18 -24 23 -14 6 -14 -19
-1 -28 15 -25 -8 6 -50 28 -38 27 -47 -4 -31 -22 12 -37 -1 -25 -21 5 -7 2 -9
-9 -5 -22 8 -18 -32 5 -44 10 -5 18 -14 18 -20 0 -14 20 -33 45 -43 16 -6 17
-9 5 -16 -8 -6 -10 -10 -5 -10 6 0 21 -9 35 -20 l25 -20 -30 2 c-17 1 -36 -1
-42 -5 -6 -4 -14 -3 -17 2 -3 5 -16 7 -28 3 -16 -4 -27 2 -44 24 -28 34 -40
26 -43 -33 -1 -16 -28 -17 -33 -2 -2 5 -11 7 -21 4 -12 -5 -14 -12 -8 -23 7
-12 2 -24 -20 -45 -28 -26 -31 -27 -52 -12 l-21 15 23 0 c19 0 22 4 17 23 -3
13 1 32 9 44 16 23 11 35 -11 26 -8 -3 -27 7 -42 22 l-27 27 -12 -28 c-12 -30
-11 -31 -28 22 -3 9 0 23 7 32 11 13 10 15 -9 10 -14 -4 -23 -2 -23 5 0 8 -4
7 -12 -1 -7 -7 -18 -12 -25 -12 -17 0 -17 47 0 53 7 3 5 6 -5 6 -21 1 -25 21
-4 21 7 0 16 9 19 20 3 11 0 18 -6 17 -6 -1 -13 7 -15 17 -5 26 -24 44 -40 38
-15 -5 -15 3 -2 29 6 11 7 19 1 19 -5 0 -12 -11 -15 -25 -4 -14 -11 -25 -16
-25 -6 0 -8 -12 -5 -27 6 -25 5 -26 -8 -11 -10 13 -17 14 -25 6 -8 -8 -9 -5
-5 12 5 19 3 22 -11 17 -10 -4 -20 -7 -22 -7 -3 0 -2 -5 1 -11 4 -6 -2 -13
-14 -16 -25 -6 -26 -18 -6 -56 12 -24 12 -29 0 -34 -8 -3 -22 -3 -30 1 -20 7
-19 -11 1 -22 10 -6 13 -12 6 -16 -6 -3 -27 4 -47 15 -35 21 -42 21 -114 10
-56 -8 -91 -8 -131 -1 -30 6 -95 10 -145 9 -304 -6 -308 -6 -549 81 -78 28
-107 33 -242 40 -187 10 -231 26 -333 125 -78 75 -193 135 -260 135 -74 0 -87
12 -279 254 -71 89 -167 160 -259 189 -108 35 -131 39 -188 28 -37 -7 -72 -5
-134 6 -77 15 -94 14 -190 0 -237 -37 -245 -36 -358 41 -89 60 -228 131 -280
143 -27 5 -69 23 -94 40 -57 36 -117 54 -234 69 -99 13 -125 15 -334 30 -130
10 -153 14 -252 51 -105 40 -111 41 -211 37 -97 -3 -106 -5 -149 -35 -58 -40
-140 -67 -176 -58 -16 3 -55 24 -88 45 -34 22 -89 46 -127 55 -77 20 -190 84
-296 169 -79 62 -230 158 -382 241 -52 29 -138 78 -190 109 -52 32 -105 62
-119 67 -37 15 -162 -15 -329 -78 -204 -77 -389 -113 -572 -113 -159 1 -206 9
-282 55 -67 39 -193 91 -329 134 -112 36 -189 83 -294 180 -42 39 -136 116
-208 170 -73 54 -150 118 -172 141 -22 23 -62 58 -90 78 -27 20 -72 57 -100
82 -66 60 -163 129 -250 175 -38 21 -112 65 -164 98 -151 96 -212 107 -292 52
-40 -27 -61 -35 -96 -35 -38 0 -50 6 -92 45 -31 29 -57 45 -74 45 -14 0 -58
-22 -99 -49z m22765 -1074 c-3 -5 -10 -4 -15 1 -6 6 -7 16 -3 22 6 9 9 9 16
-1 4 -7 5 -17 2 -22z m-5088 -185 c-6 -4 -10 -13 -11 -19 -1 -7 -2 -22 -2 -33
-2 -24 -30 -27 -39 -4 -9 23 15 60 40 61 12 1 17 -1 12 -5z m2687 -652 c7 -11
19 -20 26 -20 7 0 10 -4 7 -10 -7 -12 -51 14 -59 36 -8 21 12 17 26 -6z m-24
-121 c-17 -12 -28 -11 -28 1 0 5 -15 8 -32 6 -28 -3 -47 6 -48 24 0 3 16 6 36
7 20 1 42 7 48 13 7 7 14 3 24 -16 12 -22 12 -28 0 -35z m-5518 -679 c0 -5 -2
-10 -4 -10 -3 0 -8 5 -11 10 -3 6 -1 10 4 10 6 0 11 -4 11 -10z m-1184 -60
c-1 -17 -7 -30 -13 -30 -16 0 -16 2 -3 34 13 34 17 33 16 -4z"/>
<path d="M21547 5193 c-4 -3 -7 -13 -7 -20 0 -20 23 -11 26 10 2 17 -7 22 -19
10z"/>
<path d="M21628 5103 c7 -3 16 -2 19 1 4 3 -2 6 -13 5 -11 0 -14 -3 -6 -6z"/>
<path d="M25720 5010 c0 -5 5 -10 11 -10 5 0 7 5 4 10 -3 6 -8 10 -11 10 -2 0
-4 -4 -4 -10z"/>
<path d="M25758 4973 c7 -3 16 -2 19 1 4 3 -2 6 -13 5 -11 0 -14 -3 -6 -6z"/>
<path d="M25504 4894 c22 -15 4 -28 -25 -19 -15 5 -19 4 -15 -4 4 -6 1 -11 -6
-11 -11 0 -11 -2 0 -9 7 -4 12 -14 10 -21 -2 -7 7 -14 21 -15 14 -1 27 -7 29
-13 2 -7 12 -12 21 -12 23 0 23 31 0 37 -10 3 -17 13 -16 24 2 24 2 24 40 -3
l32 -21 -28 29 c-15 17 -25 33 -22 36 3 3 -8 8 -26 10 -28 4 -30 3 -15 -8z"/>
<path d="M21147 4880 c3 -11 9 -20 14 -20 6 0 14 -10 19 -22 7 -19 9 -19 9 -5
1 12 6 16 14 11 6 -4 -1 7 -17 24 -34 37 -46 40 -39 12z"/>
<path d="M22373 4885 c0 -8 4 -12 9 -9 5 3 6 10 3 15 -9 13 -12 11 -12 -6z"/>
<path d="M21445 4860 c-3 -5 -1 -10 4 -10 6 0 11 5 11 10 0 6 -2 10 -4 10 -3
0 -8 -4 -11 -10z"/>
<path d="M21833 4822 c-8 -5 -9 -13 -3 -22 11 -17 23 -8 18 14 -2 9 -8 12 -15
8z"/>
<path d="M26189 4813 c-1 -4 -1 -11 0 -15 0 -5 -3 -8 -8 -8 -5 0 -7 -9 -4 -20
8 -28 27 -19 30 13 2 23 -15 51 -18 30z"/>
<path d="M22001 4754 c0 -11 3 -14 6 -6 3 7 2 16 -1 19 -3 4 -6 -2 -5 -13z"/>
<path d="M21300 4751 c0 -5 5 -13 10 -16 6 -3 10 -2 10 4 0 5 -4 13 -10 16 -5
3 -10 2 -10 -4z"/>
<path d="M22550 4737 c0 -10 8 -17 18 -17 9 0 13 4 7 8 -5 4 -13 11 -17 16 -5
5 -8 2 -8 -7z"/>
<path d="M25371 4726 c-7 -8 -8 -16 -4 -19 11 -7 45 18 36 26 -10 11 -19 8
-32 -7z"/>
<path d="M26209 4718 c-7 -23 -5 -38 5 -41 9 -4 11 2 8 19 -4 20 -10 31 -13
22z"/>
<path d="M23198 4623 c7 -3 16 -2 19 1 4 3 -2 6 -13 5 -11 0 -14 -3 -6 -6z"/>
<path d="M18045 4600 c3 -5 10 -10 16 -10 5 0 9 5 9 10 0 6 -7 10 -16 10 -8 0
-12 -4 -9 -10z"/>
<path d="M26250 4570 c0 -5 5 -10 10 -10 6 0 10 5 10 10 0 6 -4 10 -10 10 -5
0 -10 -4 -10 -10z"/>
<path d="M26346 4553 c-9 -22 -8 -23 20 -23 18 0 25 5 22 17 -4 21 -35 26 -42
6z"/>
<path d="M26625 4517 c-17 -13 -17 -14 3 -19 16 -4 20 -1 19 13 -1 11 -2 19
-2 19 -1 0 -9 -6 -20 -13z"/>
<path d="M26551 4461 c-10 -6 -11 -14 -3 -26 9 -17 10 -16 17 4 8 27 4 33 -14
22z"/>
<path d="M23431 4434 c0 -11 3 -14 6 -6 3 7 2 16 -1 19 -3 4 -6 -2 -5 -13z"/>
<path d="M23930 4431 c-19 -8 -22 -41 -4 -41 15 0 28 23 22 38 -1 5 -10 7 -18
3z"/>
<path d="M23393 4405 c-9 -9 -10 -22 -4 -37 8 -22 9 -21 16 10 8 39 5 45 -12
27z"/>
<path d="M26506 4364 c-6 -15 -4 -15 11 -3 10 7 20 15 22 16 2 2 -3 3 -11 3
-9 0 -19 -7 -22 -16z"/>
<path d="M17870 4271 c1 -11 72 -51 81 -45 21 13 6 30 -36 40 -25 6 -45 8 -45
5z"/>
<path d="M24960 4210 c0 -5 5 -10 10 -10 6 0 10 5 10 10 0 6 -4 10 -10 10 -5
0 -10 -4 -10 -10z"/>
<path d="M17816 4005 c4 -17 8 -33 10 -37 7 -12 66 -20 73 -11 3 6 13 13 21
16 12 4 11 6 -2 6 -10 1 -18 6 -18 11 0 6 -12 10 -27 10 -14 0 -35 8 -45 17
-19 17 -19 16 -12 -12z"/>
<path d="M18490 3969 c0 -5 5 -7 10 -4 6 3 10 8 10 11 0 2 -4 4 -10 4 -5 0
-10 -5 -10 -11z"/>
<path d="M17990 3950 c0 -5 6 -10 14 -10 8 0 18 5 21 10 3 6 -3 10 -14 10 -12
0 -21 -4 -21 -10z"/>
<path d="M19560 3880 c0 -11 5 -20 11 -20 5 0 7 -4 4 -10 -3 -5 -1 -10 4 -10
6 0 9 10 7 23 -3 12 -5 25 -5 30 -2 17 -21 5 -21 -13z"/>
<path d="M19560 3804 c0 -8 5 -12 10 -9 6 4 8 11 5 16 -9 14 -15 11 -15 -7z"/>
<path d="M14860 3730 c0 -19 3 -21 12 -12 9 9 9 15 0 24 -9 9 -12 7 -12 -12z"/>
<path d="M17150 3710 c0 -13 11 -13 30 0 12 8 11 10 -7 10 -13 0 -23 -4 -23
-10z"/>
<path d="M19465 3700 c3 -5 11 -10 16 -10 6 0 7 5 4 10 -3 6 -11 10 -16 10 -6
0 -7 -4 -4 -10z"/>
<path d="M17088 3693 c6 -2 18 -2 25 0 6 3 1 5 -13 5 -14 0 -19 -2 -12 -5z"/>
<path d="M17026 3531 c-3 -5 1 -12 10 -15 20 -8 29 -1 19 13 -8 13 -22 14 -29
2z"/>
<path d="M17087 3523 c-22 -6 -12 -23 14 -23 10 0 19 7 19 15 0 15 -2 16 -33
8z"/>
<path d="M15840 3380 c-12 -8 -9 -10 12 -10 15 0 30 5 33 10 8 13 -25 13 -45
0z"/>
<path d="M20310 3240 c0 -5 4 -10 9 -10 6 0 13 5 16 10 3 6 -1 10 -9 10 -9 0
-16 -4 -16 -10z"/>
<path d="M16630 3190 c0 -5 5 -10 10 -10 6 0 10 5 10 10 0 6 -4 10 -10 10 -5
0 -10 -4 -10 -10z"/>
<path d="M16673 3183 c-15 -5 -18 -33 -4 -33 8 0 25 30 19 35 -2 1 -9 0 -15
-2z"/>
<path d="M16606 3167 c3 -10 9 -15 12 -12 3 3 0 11 -7 18 -10 9 -11 8 -5 -6z"/>
<path d="M20280 3150 c0 -5 5 -10 11 -10 5 0 7 5 4 10 -3 6 -8 10 -11 10 -2 0
-4 -4 -4 -10z"/>
<path d="M16705 3130 c3 -5 8 -10 11 -10 2 0 4 5 4 10 0 6 -5 10 -11 10 -5 0
-7 -4 -4 -10z"/>
<path d="M14380 3110 c0 -11 6 -20 14 -20 9 0 12 7 9 20 -3 11 -9 20 -14 20
-5 0 -9 -9 -9 -20z"/>
<path d="M16614 3119 c-3 -6 -1 -16 5 -22 8 -8 11 -7 11 3 0 9 5 8 20 -5 18
-16 20 -16 20 -2 0 10 -7 17 -15 17 -8 0 -15 5 -15 10 0 13 -17 13 -26 -1z"/>
<path d="M20218 3103 c-16 -2 -28 -9 -28 -15 0 -5 6 -8 14 -5 7 3 23 -1 35 -9
19 -14 21 -13 21 0 0 9 -6 16 -12 16 -9 0 -8 4 2 10 8 5 11 9 5 8 -5 0 -22 -3
-37 -5z"/>
<path d="M17005 3090 c3 -5 8 -10 11 -10 2 0 4 5 4 10 0 6 -5 10 -11 10 -5 0
-7 -4 -4 -10z"/>
<path d="M14400 3070 c0 -5 9 -10 20 -10 11 0 20 5 20 10 0 6 -9 10 -20 10
-11 0 -20 -4 -20 -10z"/>
<path d="M16550 2978 c0 -12 3 -18 7 -14 11 10 12 36 2 36 -5 0 -9 -10 -9 -22z"/>
<path d="M20127 2953 c-12 -11 -8 -23 7 -23 8 0 16 7 20 15 5 15 -14 21 -27 8z"/>
</g>
</svg>
